<?xml version="1.0" encoding="utf-8"?><svg width="192" height="168" viewBox="0 0 192 168" xmlns="http://www.w3.org/2000/svg" xmlns:xlink="http://www.w3.org/1999/xlink"><view id="icon_arrow_circle_gold" viewBox="47 150 11 18"/><svg width="11" height="18" fill="none" viewBox="-2 -2 11 18" x="47" y="150" xmlns="http://www.w3.org/2000/svg"><path d="M.258.27c.317-.36.813-.36 1.13 0l5.374 6.08a.978.978 0 010 1.278l-5.394 6.103a.728.728 0 01-1.13.022.978.978 0 01-.02-1.279l.02-.022L5.076 7 .258 1.526a.948.948 0 010-1.257z" fill="#FDD82A"/></svg><view id="icon_arrow_circle_gray" viewBox="0 150 11 18"/><svg width="11" height="18" fill="none" viewBox="-2 -2 11 18" y="150" xmlns="http://www.w3.org/2000/svg"><path d="M.258.27c.317-.36.813-.36 1.13 0l5.374 6.08a.978.978 0 010 1.278l-5.394 6.103a.728.728 0 01-1.13.022.978.978 0 01-.02-1.279l.02-.022L5.076 7 .258 1.526a.948.948 0 010-1.257z" fill="#B0B0B0"/></svg><view id="icon_burger_black" viewBox="0 134 24 16"/><svg width="24" height="16" fill="none" viewBox="-2 -2 24 16" y="134" xmlns="http://www.w3.org/2000/svg"><rect width="20" height="2" rx="1" fill="#000"/><rect y="5" width="20" height="2" rx="1" fill="#000"/><rect y="10" width="20" height="2" rx="1" fill="#000"/></svg><view id="icon_burger_gray" viewBox="24 134 24 16"/><svg width="24" height="16" fill="none" viewBox="-2 -2 24 16" x="24" y="134" xmlns="http://www.w3.org/2000/svg"><rect width="20" height="2" rx="1" fill="#C5C5C5"/><rect y="5" width="20" height="2" rx="1" fill="#C5C5C5"/><rect y="10" width="20" height="2" rx="1" fill="#C5C5C5"/></svg><view id="icon_close_black" viewBox="29 150 18 18"/><svg width="18" height="18" fill="none" viewBox="-2 -2 18 18" x="29" y="150" xmlns="http://www.w3.org/2000/svg"><path d="M8.487 7l5.206-5.206c.41-.41.41-1.078 0-1.487a1.054 1.054 0 00-1.487 0L7 5.513 1.794.307a1.054 1.054 0 00-1.487 0c-.41.409-.41 1.078 0 1.487L5.513 7 .307 12.206c-.41.41-.41 1.078 0 1.487.409.41 1.078.41 1.487 0L7 8.487l5.206 5.206c.41.41 1.078.41 1.487 0 .41-.409.41-1.078 0-1.487L8.487 7z" fill="#000"/></svg><view id="icon_close_gray" viewBox="11 150 18 18"/><svg width="18" height="18" fill="none" viewBox="-2 -2 18 18" x="11" y="150" xmlns="http://www.w3.org/2000/svg"><path d="M8.487 7l5.206-5.206c.41-.41.41-1.078 0-1.487a1.054 1.054 0 00-1.487 0L7 5.513 1.794.307a1.054 1.054 0 00-1.487 0c-.41.409-.41 1.078 0 1.487L5.513 7 .307 12.206c-.41.41-.41 1.078 0 1.487.409.41 1.078.41 1.487 0L7 8.487l5.206 5.206c.41.41 1.078.41 1.487 0 .41-.409.41-1.078 0-1.487L8.487 7z" fill="#C5C5C5"/></svg><view id="icon_mail" viewBox="48 134 19 16"/><svg width="19" height="16" fill="none" viewBox="-2 -2 19 16" x="48" y="134" xmlns="http://www.w3.org/2000/svg"><g clip-path="url(#gclip0)"><path d="M1.615 0C.692 0 0 .72 0 1.68v8.76C0 11.28.692 12 1.615 12H13.5c.808 0 1.615-.72 1.615-1.68V1.68C15 .72 14.308 0 13.5 0H1.615zM13.5 10.92H1.615c-.346 0-.577-.24-.577-.6V1.8L7.27 7.08c.116.12.462.12.577 0l6.115-5.28v8.52c0 .36-.23.6-.461.6zM7.5 6L1.73 1.08h11.424-.115L7.5 6z" fill="#000"/></g><defs><clipPath id="gclip0"><path fill="#fff" d="M0 0h15v12H0z"/></clipPath></defs></svg><view id="icon_phone" viewBox="172 54 16 24"/><svg width="16" height="24" fill="none" viewBox="-2 -2 16 24" x="172" y="54" xmlns="http://www.w3.org/2000/svg"><path d="M6 17.178a.72.72 0 00-.72.726c0 .322.32.645.72.645.4 0 .72-.323.72-.726 0-.323-.32-.645-.72-.645z" fill="#000"/><path d="M10.64 20H1.36c-.4 0-.72-.161-.96-.403-.24-.242-.4-.565-.4-.887V1.37C0 .565.64 0 1.36 0h9.28C11.36 0 12 .565 12 1.371V18.71c0 .726-.64 1.29-1.36 1.29zm-9.6-3.306v1.935c0 .161.16.323.32.323h9.28c.16 0 .32-.162.32-.323v-1.936H1.04zm0-.968h9.92V4.355H1.04v11.37zm0-12.42h9.92V1.371c0-.161-.16-.323-.32-.323H1.36c-.16 0-.32.162-.32.323v1.935z" fill="#000"/></svg><view id="icon_place" viewBox="0 0 64 88"/><svg width="64" height="88" fill="none" viewBox="-2 -2 64 88" xmlns="http://www.w3.org/2000/svg"><path d="M30 0C13.571 0 0 13.3 0 29.4 0 56.7 30 84 30 84s30-27.3 30-54.6C60 13.3 46.429 0 30 0zm0 42c-7.857 0-14.286-6.3-14.286-14S22.143 14 30 14c7.857 0 14.286 6.3 14.286 14S37.857 42 30 42z" fill="#FDD82A"/></svg><view id="icon_place_mini" viewBox="170 88 19 24"/><svg width="19" height="24" fill="none" viewBox="-2 -2 19 24" x="170" y="88" xmlns="http://www.w3.org/2000/svg"><path d="M7.5 0C3.333 0 0 3.294 0 7.412c0 2.94 1.19 6 3.571 8.94 1.786 2.236 3.453 3.53 3.572 3.53.119.118.238.118.357.118s.238 0 .357-.118c.12 0 1.786-1.411 3.572-3.53 2.38-2.94 3.571-6 3.571-8.94C14.881 3.294 11.548 0 7.5 0zm0 18.823C6.19 17.648 1.071 13.06 1.071 7.412c0-3.53 2.858-6.353 6.429-6.353s6.429 2.823 6.429 6.353c-.12 5.647-5.12 10.235-6.429 11.411z" fill="#000"/><path d="M7.56 3.176c-2.28 0-4.08 1.764-4.08 3.882 0 2.118 1.8 4 4.08 4 2.28 0 3.96-1.765 3.96-4 0-2.235-1.8-3.882-3.96-3.882zm0 6.823c-1.68 0-3-1.294-3-2.94 0-1.648 1.32-2.942 3-2.942s2.88 1.412 2.88 2.941C10.44 8.588 9.12 10 7.56 10z" fill="#000"/></svg><view id="icon_place_small" viewBox="0 88 34 46"/><svg width="34" height="46" fill="none" viewBox="-2 -2 34 46" y="88" xmlns="http://www.w3.org/2000/svg"><path d="M15 0C6.786 0 0 6.65 0 14.7 0 28.35 15 42 15 42s15-13.65 15-27.3C30 6.65 23.214 0 15 0zm0 21c-3.929 0-7.143-3.15-7.143-7S11.071 7 15 7s7.143 3.15 7.143 7-3.214 7-7.143 7z" fill="#FDD82A"/></svg><view id="icon_refill" viewBox="73 88 39 39"/><svg width="39" height="39" fill="none" viewBox="-2 -2 39 39" x="73" y="88" xmlns="http://www.w3.org/2000/svg"><path d="M33.871 24.048v-2.032a.566.566 0 00-.565-.564h-.564v-6.21c0-.932-.762-1.694-1.694-1.694h-1.693v-2.822c0-.932-.762-1.694-1.694-1.694h-1.693V.565A.566.566 0 0025.403 0H7.34a.566.566 0 00-.565.565v8.467H5.081c-.932 0-1.694.762-1.694 1.694v2.822H1.694C.762 13.548 0 14.31 0 15.242v9.032c0 .734.473 1.355 1.129 1.588v.67c0 .932.762 1.694 1.694 1.694h3.951v.564c0 .31.254.565.565.565h12.984v5.08c0 .311.254.565.564.565h13.548c.311 0 .565-.254.565-.565v-7.437c0-1.1-.402-2.138-1.129-2.95zM23.71 23.71h-1.13v-1.13h1.13v1.13zm-1.447 1.129h1.757a3.2 3.2 0 01.776 1.693H21.48a3.378 3.378 0 01.783-1.693zM5.645 20.323h1.13v4.516h-1.13v-4.516zm0-1.13v-1.129h21.452v1.13H5.645zm22.58 3.388v1.129h-1.128v-1.13h1.129zm-1.446 2.258h1.757c.424.48.692 1.065.776 1.693h-3.316a3.378 3.378 0 01.783-1.693zm-5.327 2.822h3.387v3.952h-3.387V27.66zm4.516 0h3.387v3.952h-3.387V27.66zm4.516 0h3.387v3.952h-3.387V27.66zm3.352-1.129h-3.317a3.252 3.252 0 01.776-1.693h1.757c.424.48.692 1.065.784 1.693zm-1.094-3.951v1.129h-1.13v-1.13h1.13zm-5.08-12.42c.31 0 .564.254.564.565v2.822h-2.258v-3.387h1.693zM24.838 1.13v12.42H7.903V1.128H24.84zM4.516 10.726c0-.31.254-.565.565-.565h1.693v3.387H4.516v-2.822zM1.13 15.242c0-.31.254-.565.565-.565h29.354c.31 0 .565.255.565.565v6.21h-.565a.566.566 0 00-.564.564v2.032c-.219.247-.41.516-.565.798a4.42 4.42 0 00-.564-.798v-2.032a.566.566 0 00-.565-.564h-.564V17.5a.566.566 0 00-.565-.564H5.081a.566.566 0 00-.565.564v7.339H1.694a.566.566 0 01-.565-.565v-9.032zm1.694 11.855a.566.566 0 01-.565-.565v-.564h4.516v1.129H2.823zm5.08 1.129v-7.903h19.194v1.129h-.565a.566.566 0 00-.564.564v2.032c-.219.247-.41.516-.565.798a4.414 4.414 0 00-.564-.798v-2.032a.566.566 0 00-.565-.564h-2.258a.566.566 0 00-.564.564v2.032a4.397 4.397 0 00-1.13 2.95v1.228H7.904zm13.549 4.516h3.387v1.129h-3.387v-1.13zm4.516 0h3.387v1.129h-3.387v-1.13zm4.516 1.129v-1.13h3.387v1.13h-3.387z" fill="#000"/></svg><view id="icon_refill_small" viewBox="141 88 29 29"/><svg width="29" height="29" fill="none" viewBox="-2 -2 29 29" x="141" y="88" xmlns="http://www.w3.org/2000/svg"><path d="M24.194 17.177v-1.451a.404.404 0 00-.404-.403h-.403v-4.436c0-.665-.544-1.21-1.21-1.21h-1.21V7.661c0-.665-.544-1.21-1.209-1.21h-1.21V.404A.404.404 0 0018.145 0H5.242a.404.404 0 00-.403.403v6.049h-1.21c-.665 0-1.21.544-1.21 1.21v2.015H1.21c-.665 0-1.209.545-1.209 1.21v6.452c0 .524.338.968.806 1.134v.479c0 .665.545 1.21 1.21 1.21H4.84v.402c0 .222.181.404.403.404h9.274v3.629c0 .221.182.403.403.403h9.678a.404.404 0 00.403-.403v-5.313c0-.786-.287-1.527-.806-2.107zm-7.258-.241h-.807v-.807h.806v.806zm-1.034.806h1.255c.303.343.494.761.555 1.21h-2.37c.071-.449.263-.867.56-1.21zm-11.87-3.226h.807v3.226h-.807v-3.226zm0-.806v-.807h15.323v.807H4.032zm16.13 2.419v.806h-.807v-.806h.806zm-1.034 1.613h1.255c.303.343.494.761.555 1.21h-2.37c.071-.449.263-.867.56-1.21zm-3.805 2.016h2.419v2.823h-2.42v-2.823zm3.225 0h2.42v2.823h-2.42v-2.823zm3.226 0h2.42v2.823h-2.42v-2.823zm2.394-.806H21.8c.066-.449.252-.867.555-1.21h1.255c.302.343.494.761.56 1.21zm-.78-2.823v.806h-.807v-.806h.806zm-3.63-8.87c.222 0 .403.18.403.402v2.016h-1.613V7.258h1.21zM17.742.805v8.871H5.645V.807h12.097zM3.226 7.661c0-.221.181-.403.403-.403h1.21v2.42H3.226V7.66zm-2.42 3.226c0-.222.182-.403.404-.403h20.967c.222 0 .404.181.404.403v4.436h-.404a.404.404 0 00-.403.403v1.451a3.155 3.155 0 00-.403.57 3.155 3.155 0 00-.403-.57v-1.451a.404.404 0 00-.404-.403h-.403V12.5a.404.404 0 00-.403-.403H3.63a.404.404 0 00-.403.403v5.242H1.21a.404.404 0 01-.404-.403v-6.452zm1.21 8.468a.404.404 0 01-.403-.403v-.404h3.226v.807H2.016zm3.63.806v-5.645h13.709v.807h-.403a.404.404 0 00-.404.403v1.451a3.15 3.15 0 00-.403.57 3.155 3.155 0 00-.403-.57v-1.451a.404.404 0 00-.403-.403h-1.613a.404.404 0 00-.403.403v1.451c-.52.58-.807 1.321-.807 2.107v.877h-8.87zm9.677 3.226h2.419v.806h-2.42v-.806zm3.225 0h2.42v.806h-2.42v-.806zm3.226.806v-.806h2.42v.806h-2.42z" fill="#000"/></svg><view id="icon_repairs" viewBox="34 88 39 39"/><svg width="39" height="39" fill="none" viewBox="-2 -2 39 39" x="34" y="88" xmlns="http://www.w3.org/2000/svg"><path d="M11.52 20.264l-7.324 7.332a.757.757 0 00.515 1.29.726.726 0 00.515-.222l7.324-7.332a.756.756 0 000-1.068c-.258-.295-.736-.295-1.03 0zM6.33 30.764a.726.726 0 00.515.22.726.726 0 00.516-.22l7.324-7.332a.755.755 0 10-1.067-1.068L6.33 29.732a.713.713 0 000 1.032z" fill="#000"/><path d="M33.086 23.358c-1.62-1.621-4.048-2.247-6.293-1.621l-5.226-5.268 8.06-8.069 1.877-.405c.33-.074.588-.258.736-.516l2.355-3.832c.295-.442.221-1.031-.184-1.436L32.718.516c-.368-.369-.957-.442-1.435-.184l-3.79 2.358a1.298 1.298 0 00-.516.736l-.405 1.916-8.06 8.069-5.263-5.269c.147-.552.258-1.142.258-1.731a6.388 6.388 0 00-1.877-4.532C9.753 0 6.845-.516 4.453.589a.844.844 0 00-.441.553.743.743 0 00.22.663L6.625 4.2c.33.332.515.737.515 1.216s-.184.884-.515 1.216a1.732 1.732 0 01-2.43 0L1.804 4.2a.775.775 0 00-.662-.221c-.258.037-.442.221-.552.442C.22 5.268 0 6.153 0 7.111c0 1.694.7 3.352 1.877 4.531 1.62 1.658 4.048 2.248 6.257 1.621l2.87 2.874-9.974 9.947a2.762 2.762 0 000 3.905l3.938 3.943a2.756 2.756 0 003.902 0l9.973-9.948 2.871 2.874a6.983 6.983 0 00-.22 1.732c0 1.731.662 3.352 1.876 4.531A6.439 6.439 0 0027.897 35c.883 0 1.803-.184 2.65-.553a.844.844 0 00.441-.552.743.743 0 00-.22-.663L28.375 30.8a1.671 1.671 0 01-.515-1.216c0-.442.184-.884.515-1.215.626-.627 1.767-.627 2.43 0l2.392 2.394a.742.742 0 00.662.221.708.708 0 00.552-.405c.405-.81.589-1.732.589-2.69a6.583 6.583 0 00-1.914-4.531zm-5.3-17.132a.765.765 0 00.221-.368l.442-1.953 3.46-2.137 1.324 1.327L31.1 6.558 29.11 7a.763.763 0 00-.368.221L20.5 15.437l-.957-.958 8.244-8.253zM7.802 32.863c-.478.48-1.325.48-1.803 0l-3.864-3.905a1.198 1.198 0 01-.368-.884c0-.332.147-.663.368-.885l9.973-9.947 5.705 5.71-10.01 9.911zm25.579-4.016L31.835 27.3c-1.251-1.179-3.386-1.142-4.527 0-.626.59-.957 1.4-.957 2.284 0 .884.331 1.658.957 2.285l1.546 1.547c-1.583.295-3.276-.184-4.417-1.326a4.935 4.935 0 01-1.435-3.5c0-.59.11-1.143.295-1.695a.685.685 0 00-.184-.774L8.87 11.863a.726.726 0 00-.516-.22c-.073 0-.184 0-.257.036-1.804.663-3.828.221-5.153-1.142C2.024 9.653 1.51 8.4 1.51 7.074c0-.332.037-.663.074-.958l1.545 1.547c1.252 1.253 3.313 1.253 4.527 0 .626-.59.957-1.4.957-2.284 0-.884-.331-1.658-.957-2.247L6.11 1.584c1.583-.294 3.24.148 4.417 1.327.92.957 1.435 2.173 1.435 3.5 0 .59-.11 1.179-.294 1.657a.742.742 0 00.184.811L26.057 23.1c.22.221.515.258.773.184 1.803-.663 3.827-.22 5.152 1.106.92.957 1.435 2.173 1.435 3.5.037.331 0 .663-.036.957z" fill="#000"/></svg><view id="icon_repairs_small" viewBox="112 88 29 29"/><svg width="29" height="29" fill="none" viewBox="-2 -2 29 29" x="112" y="88" xmlns="http://www.w3.org/2000/svg"><path d="M8.228 14.474l-5.231 5.237a.54.54 0 00.368.921.519.519 0 00.368-.158l5.231-5.236a.54.54 0 000-.764c-.184-.21-.525-.21-.736 0zM4.522 21.974a.519.519 0 00.368.158.519.519 0 00.368-.158l5.231-5.236a.54.54 0 00-.762-.764l-5.205 5.264a.51.51 0 000 .736z" fill="#000"/><path d="M23.633 16.684c-1.157-1.158-2.892-1.605-4.495-1.158l-3.733-3.763L21.162 6l1.34-.29a.784.784 0 00.526-.368l1.683-2.737c.21-.315.158-.737-.132-1.026L23.37.369a.87.87 0 00-1.025-.132L19.637 1.92a.928.928 0 00-.368.526l-.289 1.369-5.757 5.763-3.76-3.763c.106-.395.185-.816.185-1.237 0-1.21-.473-2.368-1.34-3.237A4.586 4.586 0 003.18.422a.603.603 0 00-.316.394.53.53 0 00.158.474L4.732 3c.236.237.368.526.368.868 0 .343-.132.632-.368.869a1.237 1.237 0 01-1.735 0L1.288 3a.554.554 0 00-.473-.158C.63 2.868.499 3 .42 3.158A4.761 4.761 0 000 5.079c0 1.21.5 2.395 1.34 3.237C2.498 9.5 4.233 9.92 5.81 9.474l2.05 2.052-7.124 7.106a1.973 1.973 0 000 2.79l2.813 2.815a1.969 1.969 0 002.786 0l7.125-7.105 2.05 2.052a4.986 4.986 0 00-.158 1.237c0 1.237.473 2.395 1.341 3.237A4.598 4.598 0 0019.926 25c.631 0 1.289-.131 1.893-.395a.603.603 0 00.316-.394.531.531 0 00-.158-.474L20.268 22a1.194 1.194 0 01-.368-.868c0-.316.132-.632.368-.869.447-.447 1.262-.447 1.735 0l1.709 1.71a.53.53 0 00.473.159.505.505 0 00.394-.29c.29-.579.421-1.237.421-1.92a4.703 4.703 0 00-1.367-3.238zM19.848 4.447a.546.546 0 00.157-.263l.316-1.394 2.47-1.527.947.948-1.524 2.473-1.42.316a.545.545 0 00-.263.158l-5.888 5.868-.684-.684 5.889-5.895zM5.572 23.474a.937.937 0 01-1.288 0l-2.76-2.79a.856.856 0 01-.263-.631.92.92 0 01.263-.632l7.124-7.105 4.074 4.079-7.15 7.079zm18.27-2.869L22.74 19.5c-.894-.842-2.418-.816-3.233 0-.447.421-.684 1-.684 1.632 0 .631.237 1.184.684 1.631l1.104 1.105c-1.13.211-2.34-.131-3.155-.947a3.525 3.525 0 01-1.025-2.5c0-.421.079-.816.21-1.21a.49.49 0 00-.131-.553L6.335 8.474a.519.519 0 00-.368-.158c-.052 0-.131 0-.184.026-1.288.474-2.734.158-3.68-.816C1.446 6.895 1.078 6 1.078 5.053c0-.237.026-.474.052-.685l1.104 1.106c.894.894 2.366.894 3.234 0 .447-.421.683-1 .683-1.632 0-.631-.236-1.184-.683-1.605L4.364 1.132c1.13-.21 2.313.105 3.154.947.658.684 1.026 1.553 1.026 2.5 0 .421-.08.842-.21 1.184a.53.53 0 00.13.58L18.613 16.5a.548.548 0 00.552.132c1.288-.474 2.734-.158 3.68.79.658.683 1.026 1.552 1.026 2.5.026.236 0 .473-.027.683z" fill="#000"/></svg><view id="logo" viewBox="138 0 54 54"/><svg width="54" height="54" fill="none" viewBox="-2 -2 54 54" x="138" xmlns="http://www.w3.org/2000/svg"><path d="M5.87 14.844h7.34v7.324H5.87v-7.324z" fill="#2D2D2D"/><path d="M11.742 6.055h14.775v16.113H11.742V6.055z" fill="#FEF000"/><path d="M44.031 41.21H0V20.704h44.031v20.508z" fill="#03A7E4"/><path d="M23.483 26.563h2.936v2.93h-2.936v-2.93zM17.613 26.563h2.935v2.93h-2.935v-2.93zM5.87 26.563h8.807v2.93H5.871v-2.93z" fill="#F3F3F3"/><path d="M32.29 32.422l-10.274 3.125-10.274-3.125H5.87V50h32.29V32.422H32.29z" fill="#2D2D2D"/><path d="M11.742 32.422H32.29V44.14H11.742V32.42z" fill="#FEF000"/><path d="M36.889.01C29.99-.197 23.58 5.623 23.58 13.192c0 7.539 6.39 13.388 13.308 13.183C44.129 26.327 50 20.43 50 13.193 50 5.956 44.12.058 36.89.009z" fill="#E70186"/><path d="M38.6 8.809c-.616-1.036-.254-.43-1.712-2.989-1.448 2.55-1.095 1.953-1.712 2.989-1.79 2.998-2.69 4.726-2.69 5.84a4.405 4.405 0 004.403 4.394 4.405 4.405 0 004.403-4.395c0-1.113-.91-2.841-2.691-5.84z" fill="#F3F3F3"/></svg><view id="logo_medium" viewBox="64 0 74 74"/><svg width="74" height="74" fill="none" viewBox="-2 -2 74 74" x="64" xmlns="http://www.w3.org/2000/svg"><path d="M8.22 20.781h10.273v10.254H8.22V20.781z" fill="#2D2D2D"/><path d="M16.438 8.477h20.685v22.558H16.438V8.477z" fill="#FEF000"/><path d="M61.644 57.695H0v-28.71h61.644v28.71z" fill="#03A7E4"/><path d="M32.877 37.188h4.11v4.101h-4.11v-4.102zM24.657 37.188h4.11v4.101h-4.11v-4.102zM8.22 37.188h12.328v4.101H8.219v-4.102z" fill="#F3F3F3"/><path d="M45.206 45.39l-14.384 4.376-14.384-4.375H8.22V70h45.206V45.39h-8.22z" fill="#2D2D2D"/><path d="M16.438 45.39h28.767v16.407H16.438V45.39z" fill="#FEF000"/><path d="M51.644.013c-9.658-.287-18.63 7.862-18.63 18.457 0 10.555 8.945 18.744 18.63 18.457C61.78 36.86 70 28.601 70 18.47 70 8.34 61.767.082 51.644.013z" fill="#E70186"/><path d="M54.041 12.332c-.863-1.45-.356-.602-2.397-4.184-2.027 3.569-1.534 2.735-2.397 4.184-2.507 4.197-3.767 6.617-3.767 8.176 0 3.39 2.767 6.152 6.164 6.152s6.164-2.762 6.164-6.152c0-1.559-1.274-3.979-3.767-8.176z" fill="#F3F3F3"/></svg><view id="logo_small" viewBox="138 54 34 34"/><svg width="34" height="34" fill="none" viewBox="-2 -2 34 34" x="138" y="54" xmlns="http://www.w3.org/2000/svg"><g clip-path="url(#rclip0)"><path d="M3.523 8.906h4.403v4.395H3.523V8.906z" fill="#2D2D2D"/><path d="M7.045 3.633h8.865V13.3H7.045V3.633z" fill="#FEF000"/><path d="M26.419 24.727H0V12.422h26.419v12.305z" fill="#03A7E4"/><path d="M14.09 15.938h1.761v1.757H14.09v-1.758zM10.568 15.938h1.76v1.757h-1.76v-1.758zM3.523 15.938h5.283v1.757H3.523v-1.758z" fill="#F3F3F3"/><path d="M19.374 19.453l-6.165 1.875-6.164-1.875H3.523V30h19.373V19.453h-3.522z" fill="#2D2D2D"/><path d="M7.045 19.453h12.329v7.031H7.045v-7.03z" fill="#FEF000"/><path d="M22.133.005c-4.139-.123-7.984 3.37-7.984 7.91 0 4.524 3.833 8.034 7.984 7.91C26.478 15.796 30 12.257 30 7.915c0-4.342-3.528-7.88-7.867-7.91z" fill="#E70186"/><path d="M23.16 5.285c-.37-.62-.152-.258-1.027-1.793-.869 1.53-.657 1.172-1.027 1.793C20.03 7.084 19.49 8.121 19.49 8.79a2.643 2.643 0 002.642 2.637 2.643 2.643 0 002.642-2.637c0-.668-.546-1.705-1.614-3.504z" fill="#F3F3F3"/></g><defs><clipPath id="rclip0"><path fill="#fff" d="M0 0h30v30H0z"/></clipPath></defs></svg></svg>