<svg xmlns="http://www.w3.org/2000/svg" xmlns:xlink="http://www.w3.org/1999/xlink" width="18" height="18" viewBox="0 0 18 18"><defs><path id="rv0ya" d="M253.74 1506.51a4.32 4.32 0 0 1 3.5 6.83l-.42.6-.6.42c-.73.52-1.59.8-2.48.8a4.32 4.32 0 0 1 0-8.65c2.37 0 0 0 0 0zm-6.45 4.33a6.47 6.47 0 0 0 10.18 5.28l5.18 5.21a1.07 1.07 0 0 0 1.52 0c.42-.42.42-1.1 0-1.53l-5.18-5.21a6.47 6.47 0 0 0-5.25-10.24 6.47 6.47 0 0 0-6.45 6.49z"/></defs><g><g transform="translate(-247 -1504)"><use fill="#55676e" xlink:href="#rv0ya"/></g></g></svg>