<svg width="25" height="25" viewBox="0 0 25 25" fill="none" xmlns="http://www.w3.org/2000/svg">
<path d="M8.22827 14.4743L2.99693 19.7111C2.78663 19.9217 2.78663 20.2638 2.99693 20.4743C3.10208 20.5796 3.23352 20.6322 3.36497 20.6322C3.49641 20.6322 3.62785 20.5796 3.733 20.4743L8.96433 15.2375C9.17464 15.0269 9.17464 14.6848 8.96433 14.4743C8.78032 14.2638 8.43857 14.2638 8.22827 14.4743Z" fill="black"/>
<path d="M4.52162 21.9743C4.62677 22.0796 4.75821 22.1322 4.88965 22.1322C5.02109 22.1322 5.15253 22.0796 5.25769 21.9743L10.489 16.7375C10.6993 16.5269 10.6993 16.1848 10.489 15.9743C10.2787 15.7638 9.93697 15.7638 9.72667 15.9743L4.52162 21.2375C4.31132 21.448 4.31132 21.7638 4.52162 21.9743Z" fill="black"/>
<path d="M23.633 16.6842C22.4763 15.5264 20.7413 15.079 19.1378 15.5264L15.4048 11.7632L21.1619 6.00003L22.5026 5.71056C22.7392 5.65793 22.9232 5.52635 23.0284 5.34214L24.7108 2.6053C24.9211 2.28951 24.8686 1.86845 24.5794 1.57898L23.3701 0.368455C23.1073 0.105297 22.6866 0.0526652 22.3449 0.236876L19.6372 1.92109C19.4532 2.05267 19.3218 2.23688 19.2692 2.4474L18.98 3.81582L13.2229 9.57898L9.46372 5.81582C9.56888 5.42109 9.64774 5.00003 9.64774 4.57898C9.64774 3.36846 9.17455 2.21056 8.30705 1.34214C6.96635 3.36282e-05 4.88959 -0.368387 3.18086 0.421086C3.02313 0.500034 2.91798 0.631613 2.8654 0.815823C2.83912 1.00003 2.89169 1.15793 3.02313 1.28951L4.73186 3.00003C4.96845 3.23688 5.0999 3.52635 5.0999 3.86846C5.0999 4.21056 4.96845 4.50003 4.73186 4.73688C4.25868 5.21056 3.47003 5.21056 2.99685 4.73688L1.28812 3.00003C1.15668 2.86845 0.97266 2.81582 0.814932 2.84214C0.630915 2.86846 0.499474 3.00003 0.42061 3.15793C0.157729 3.76319 0 4.39477 0 5.07898C0 6.28951 0.499474 7.47372 1.34069 8.31582C2.49737 9.50004 4.23239 9.92109 5.80967 9.47372L7.86015 11.5264L0.736067 18.6316C0.368034 19 0.157729 19.5 0.157729 20.0264C0.157729 20.5527 0.368034 21.0527 0.736067 21.4211L3.5489 24.2369C3.91693 24.6053 4.4164 24.8158 4.94217 24.8158C5.46793 24.8158 5.9674 24.6053 6.33544 24.2369L13.4595 17.1316L15.51 19.1842C15.4048 19.6053 15.3523 20 15.3523 20.4211C15.3523 21.6579 15.8254 22.8158 16.693 23.6579C17.5605 24.5264 18.7434 25 19.9264 25C20.5573 25 21.2145 24.8685 21.8191 24.6053C21.9769 24.5264 22.082 24.3948 22.1346 24.2106C22.1609 24.0264 22.1083 23.8685 21.9769 23.7369L20.2681 22C20.0315 21.7632 19.9001 21.4737 19.9001 21.1316C19.9001 20.8158 20.0315 20.5 20.2681 20.2632C20.715 19.8158 21.53 19.8158 22.0032 20.2632L23.7119 21.9737C23.8433 22.1053 24.0011 22.1579 24.1851 22.1316C24.3691 22.1053 24.5005 22 24.5794 21.8421C24.8686 21.2632 25 20.6053 25 19.9211C24.9737 18.7106 24.5005 17.5527 23.633 16.6842ZM19.8475 4.4474C19.9264 4.36846 19.979 4.28951 20.0053 4.18424L20.3207 2.78951L22.7918 1.26319L23.7382 2.21056L22.2135 4.68424L20.7939 5.00003C20.6887 5.02635 20.6099 5.07898 20.531 5.15793L14.6425 11.0264L13.959 10.3421L19.8475 4.4474ZM5.57308 23.4737C5.23134 23.8158 4.62671 23.8158 4.28496 23.4737L1.52471 20.6842C1.34069 20.5 1.26183 20.2895 1.26183 20.0527C1.26183 19.8158 1.36698 19.579 1.52471 19.4211L8.64879 12.3158L12.7234 16.3948L5.57308 23.4737ZM23.8433 20.6053L22.7392 19.5C21.8454 18.6579 20.3207 18.6842 19.5058 19.5C19.0589 19.9211 18.8223 20.5 18.8223 21.1316C18.8223 21.7632 19.0589 22.3158 19.5058 22.7632L20.6099 23.8685C19.4795 24.079 18.2702 23.7369 17.4553 22.9211C16.7981 22.2632 16.4301 21.3685 16.4301 20.4211C16.4301 20 16.5089 19.6053 16.6404 19.2106C16.7192 19.0264 16.6667 18.7895 16.5089 18.6579L6.33544 8.47372C6.23028 8.36846 6.09884 8.31582 5.9674 8.31582C5.91483 8.31582 5.83596 8.31582 5.78339 8.34214C4.49527 8.81582 3.04942 8.50004 2.10305 7.52635C1.44585 6.89477 1.07781 6.00003 1.07781 5.05267C1.07781 4.81582 1.1041 4.57898 1.13039 4.36846L2.23449 5.47372C3.12829 6.36846 4.60042 6.36846 5.46793 5.47372C5.91483 5.05267 6.15142 4.47372 6.15142 3.84214C6.15142 3.21056 5.91483 2.65793 5.46793 2.23688L4.36383 1.13161C5.49422 0.921086 6.67718 1.23688 7.5184 2.07898C8.1756 2.76319 8.54364 3.63161 8.54364 4.57898C8.54364 5.00003 8.46477 5.42109 8.33333 5.76319C8.25447 5.97372 8.30705 6.18425 8.46477 6.34214L18.612 16.5C18.7697 16.6579 18.98 16.6842 19.164 16.6316C20.4522 16.1579 21.898 16.4737 22.8444 17.4211C23.5016 18.1053 23.8696 18.9737 23.8696 19.9211C23.8959 20.1579 23.8696 20.3948 23.8433 20.6053Z" fill="black"/>
</svg>
