<svg width="12" height="20" viewBox="0 0 12 20" fill="none" xmlns="http://www.w3.org/2000/svg">
<path d="M6.00003 17.1777C5.60003 17.1777 5.28003 17.5003 5.28003 17.9035C5.28003 18.2261 5.60003 18.5487 6.00003 18.5487C6.40003 18.5487 6.72003 18.2261 6.72003 17.8229C6.72003 17.5003 6.40003 17.1777 6.00003 17.1777Z" fill="black"/>
<path d="M10.64 20H1.36C0.96 20 0.64 19.8387 0.4 19.5968C0.16 19.3548 0 19.0323 0 18.7097V1.37097C0 0.564516 0.64 0 1.36 0H10.64C11.36 0 12 0.564516 12 1.37097V18.7097C12 19.4355 11.36 20 10.64 20ZM1.04 16.6935V18.629C1.04 18.7903 1.2 18.9516 1.36 18.9516H10.64C10.8 18.9516 10.96 18.7903 10.96 18.629V16.6935H1.04ZM1.04 15.7258H10.96V4.35484H1.04V15.7258ZM1.04 3.30645H10.96V1.37097C10.96 1.20968 10.8 1.04839 10.64 1.04839H1.36C1.2 1.04839 1.04 1.20968 1.04 1.37097V3.30645Z" fill="black"/>
</svg>
