<svg width="14" height="14" viewBox="0 0 14 14" fill="none" xmlns="http://www.w3.org/2000/svg">
<path d="M8.48713 7L13.6932 1.79398C14.1023 1.38486 14.1023 0.71596 13.6932 0.30684C13.284 -0.10228 12.6151 -0.10228 12.206 0.30684L7 5.51287L1.79398 0.30684C1.38486 -0.10228 0.71596 -0.10228 0.30684 0.30684C-0.10228 0.71596 -0.10228 1.38486 0.30684 1.79398L5.51287 7L0.30684 12.206C-0.10228 12.6151 -0.10228 13.284 0.30684 13.6932C0.71596 14.1023 1.38486 14.1023 1.79398 13.6932L7 8.48713L12.206 13.6932C12.6151 14.1023 13.284 14.1023 13.6932 13.6932C14.1023 13.284 14.1023 12.6151 13.6932 12.206L8.48713 7Z" fill="#C5C5C5"/>
</svg>
