<svg width="35" height="35" viewBox="0 0 35 35" fill="none" xmlns="http://www.w3.org/2000/svg">
<path d="M11.5195 20.264L4.19567 27.5956C3.90125 27.8903 3.90125 28.3693 4.19567 28.664C4.34289 28.8114 4.5269 28.8851 4.71092 28.8851C4.89494 28.8851 5.07895 28.8114 5.22617 28.664L12.55 21.3324C12.8445 21.0377 12.8445 20.5588 12.55 20.264C12.2924 19.9693 11.814 19.9693 11.5195 20.264Z" fill="black"/>
<path d="M6.3302 30.7636C6.47741 30.911 6.66143 30.9847 6.84544 30.9847C7.02946 30.9847 7.21348 30.911 7.36069 30.7636L14.6846 23.4321C14.979 23.1373 14.979 22.6584 14.6846 22.3636C14.3901 22.0689 13.9117 22.0689 13.6173 22.3636L6.3302 29.732C6.03577 30.0268 6.03577 30.4689 6.3302 30.7636Z" fill="black"/>
<path d="M33.0862 23.3579C31.4669 21.7369 29.0379 21.1106 26.7929 21.7369L21.5668 16.4685L29.6267 8.40005L31.5037 7.99478C31.8349 7.9211 32.0925 7.73689 32.2397 7.47899L34.5952 3.64742C34.8896 3.20531 34.816 2.61584 34.4111 2.21057L32.7182 0.515837C32.3502 0.147416 31.7613 0.0737313 31.2829 0.331626L27.4921 2.68952C27.2345 2.87373 27.0505 3.13163 26.9769 3.42636L26.572 5.34215L18.5121 13.4106L13.2492 8.14215C13.3964 7.58952 13.5068 7.00005 13.5068 6.41057C13.5068 4.71584 12.8444 3.09478 11.6299 1.87899C9.75289 4.70802e-05 6.84543 -0.515742 4.45321 0.589521C4.23239 0.700047 4.08517 0.884258 4.01157 1.14215C3.97476 1.40005 4.04837 1.6211 4.23239 1.80531L6.62461 4.20005C6.95584 4.53163 7.13985 4.93689 7.13985 5.41584C7.13985 5.89478 6.95584 6.30005 6.62461 6.63163C5.96215 7.29478 4.85804 7.29478 4.19558 6.63163L1.80336 4.20005C1.61935 4.01584 1.36172 3.94215 1.1409 3.97899C0.883281 4.01584 0.699264 4.20005 0.588854 4.4211C0.22082 5.26847 0 6.15268 0 7.11057C0 8.80531 0.699264 10.4632 1.87697 11.6422C3.49632 13.3 5.92534 13.8895 8.13354 13.2632L11.0042 16.1369L1.03049 26.0843C0.515247 26.6 0.22082 27.3 0.22082 28.0369C0.22082 28.7737 0.515247 29.4737 1.03049 29.9895L4.96845 33.9316C5.4837 34.4474 6.18296 34.7422 6.91903 34.7422C7.6551 34.7422 8.35436 34.4474 8.86961 33.9316L18.8433 23.9843L21.714 26.8579C21.5668 27.4474 21.4932 28 21.4932 28.5895C21.4932 30.3211 22.1556 31.9422 23.3701 33.1211C24.5846 34.3369 26.2408 35 27.897 35C28.7802 35 29.7003 34.8158 30.5468 34.4474C30.7676 34.3369 30.9148 34.1527 30.9884 33.8948C31.0252 33.6369 30.9516 33.4158 30.7676 33.2316L28.3754 30.8C28.0442 30.4685 27.8601 30.0632 27.8601 29.5843C27.8601 29.1422 28.0442 28.7001 28.3754 28.3685C29.0011 27.7422 30.142 27.7422 30.8044 28.3685L33.1966 30.7632C33.3806 30.9474 33.6015 31.0211 33.8591 30.9843C34.1167 30.9474 34.3007 30.8001 34.4111 30.579C34.816 29.7685 35 28.8474 35 27.8895C34.9632 26.1948 34.3007 24.5737 33.0862 23.3579ZM27.7865 6.22636C27.8969 6.11584 27.9706 6.00531 28.0074 5.85794L28.449 3.90531L31.9085 1.76847L33.2334 3.09478L31.0988 6.55794L29.1115 7.00005C28.9642 7.03689 28.8538 7.11057 28.7434 7.2211L20.4995 15.4369L19.5426 14.479L27.7865 6.22636ZM7.80231 32.8632C7.32387 33.3422 6.47739 33.3422 5.99895 32.8632L2.1346 28.9579C1.87697 28.7 1.76656 28.4053 1.76656 28.0737C1.76656 27.7422 1.91378 27.4106 2.1346 27.1895L12.1083 17.2422L17.8128 22.9527L7.80231 32.8632ZM33.3806 28.8474L31.8349 27.3C30.5836 26.1211 28.449 26.1579 27.3081 27.3C26.6824 27.8895 26.3512 28.7001 26.3512 29.5843C26.3512 30.4685 26.6824 31.2422 27.3081 31.8685L28.8538 33.4158C27.2713 33.7106 25.5783 33.2316 24.4374 32.0895C23.5174 31.1685 23.0021 29.9158 23.0021 28.5895C23.0021 28 23.1125 27.4474 23.2965 26.8948C23.4069 26.6369 23.3333 26.3053 23.1125 26.1211L8.86961 11.8632C8.7224 11.7158 8.53838 11.6422 8.35436 11.6422C8.28076 11.6422 8.17035 11.6422 8.09674 11.679C6.29338 12.3422 4.26919 11.9 2.94427 10.5369C2.02419 9.65268 1.50894 8.40005 1.50894 7.07373C1.50894 6.74215 1.54574 6.41057 1.58254 6.11584L3.12829 7.66321C4.3796 8.91584 6.44059 8.91584 7.6551 7.66321C8.28076 7.07373 8.61199 6.26321 8.61199 5.37899C8.61199 4.49478 8.28076 3.7211 7.6551 3.13163L6.10936 1.58426C7.6919 1.28952 9.34805 1.73163 10.5258 2.91057C11.4458 3.86847 11.9611 5.08426 11.9611 6.41057C11.9611 7.00005 11.8507 7.58952 11.6667 8.06847C11.5563 8.3632 11.6299 8.65794 11.8507 8.87899L26.0568 23.1C26.2776 23.3211 26.572 23.3579 26.8297 23.2843C28.633 22.6211 30.6572 23.0632 31.9821 24.3895C32.9022 25.3474 33.4175 26.5632 33.4175 27.8895C33.4543 28.2211 33.4175 28.5527 33.3806 28.8474Z" fill="black"/>
</svg>
