<svg width="25" height="25" viewBox="0 0 25 25" fill="none" xmlns="http://www.w3.org/2000/svg">
<path d="M24.1935 17.1774V15.7258C24.1935 15.504 24.0121 15.3226 23.7903 15.3226H23.3871V10.8871C23.3871 10.2218 22.8427 9.67742 22.1774 9.67742H20.9677V7.66129C20.9677 6.99597 20.4234 6.45161 19.7581 6.45161H18.5484V0.403226C18.5484 0.181452 18.3669 0 18.1452 0H5.24194C5.02016 0 4.83871 0.181452 4.83871 0.403226V6.45161H3.62903C2.96371 6.45161 2.41935 6.99597 2.41935 7.66129V9.67742H1.20968C0.544355 9.67742 0 10.2218 0 10.8871V17.3387C0 17.8629 0.337702 18.3065 0.806452 18.4728V18.9516C0.806452 19.6169 1.35081 20.1613 2.01613 20.1613H4.83871V20.5645C4.83871 20.7863 5.02016 20.9677 5.24194 20.9677H14.5161V24.5968C14.5161 24.8185 14.6976 25 14.9194 25H18.1452H21.371H24.5968C24.8185 25 25 24.8185 25 24.5968V19.2843C25 18.498 24.7127 17.7571 24.1935 17.1774ZM16.9355 16.9355H16.129V16.129H16.9355V16.9355ZM15.9022 17.7419H17.1573C17.4597 18.0847 17.6512 18.503 17.7117 18.9516H15.3427C15.4133 18.503 15.6048 18.0847 15.9022 17.7419ZM4.03226 14.5161H4.83871V17.7419H4.03226V14.5161ZM4.03226 13.7097V12.9032H19.3548V13.7097H4.03226ZM20.1613 16.129V16.9355H19.3548V16.129H20.1613ZM19.128 17.7419H20.3831C20.6855 18.0847 20.877 18.503 20.9375 18.9516H18.5685C18.6391 18.503 18.8306 18.0847 19.128 17.7419ZM15.3226 19.7581H17.7419V22.5806H15.3226V19.7581ZM18.5484 19.7581H20.9677V22.5806H18.5484V19.7581ZM21.7742 19.7581H24.1935V22.5806H21.7742V19.7581ZM24.1683 18.9516H21.7994C21.8649 18.503 22.0514 18.0847 22.3538 17.7419H23.6089C23.9113 18.0847 24.1028 18.503 24.1683 18.9516ZM23.3871 16.129V16.9355H22.5806V16.129H23.3871ZM19.7581 7.25806C19.9798 7.25806 20.1613 7.43952 20.1613 7.66129V9.67742H18.5484V7.25806H19.7581ZM17.7419 0.806452V9.67742H5.64516V0.806452H17.7419ZM3.22581 7.66129C3.22581 7.43952 3.40726 7.25806 3.62903 7.25806H4.83871V9.67742H3.22581V7.66129ZM0.806452 10.8871C0.806452 10.6653 0.987903 10.4839 1.20968 10.4839H22.1774C22.3992 10.4839 22.5806 10.6653 22.5806 10.8871V15.3226H22.1774C21.9556 15.3226 21.7742 15.504 21.7742 15.7258V17.1774C21.6179 17.3538 21.4819 17.5454 21.371 17.747C21.2601 17.5454 21.124 17.3538 20.9677 17.1774V15.7258C20.9677 15.504 20.7863 15.3226 20.5645 15.3226H20.1613V12.5C20.1613 12.2782 19.9798 12.0968 19.7581 12.0968H3.62903C3.40726 12.0968 3.22581 12.2782 3.22581 12.5V17.7419H1.20968C0.987903 17.7419 0.806452 17.5605 0.806452 17.3387V10.8871ZM2.01613 19.3548C1.79435 19.3548 1.6129 19.1734 1.6129 18.9516V18.5484H4.83871V19.3548H2.01613ZM5.64516 20.1613V14.5161H19.3548V15.3226H18.9516C18.7298 15.3226 18.5484 15.504 18.5484 15.7258V17.1774C18.3921 17.3538 18.256 17.5454 18.1452 17.747C18.0343 17.5454 17.8982 17.3538 17.7419 17.1774V15.7258C17.7419 15.504 17.5605 15.3226 17.3387 15.3226H15.7258C15.504 15.3226 15.3226 15.504 15.3226 15.7258V17.1774C14.8034 17.7571 14.5161 18.498 14.5161 19.2843V20.1613H5.64516ZM15.3226 23.3871H17.7419V24.1935H15.3226V23.3871ZM18.5484 23.3871H20.9677V24.1935H18.5484V23.3871ZM21.7742 24.1935V23.3871H24.1935V24.1935H21.7742Z" fill="black"/>
</svg>
