<svg width="15" height="20" viewBox="0 0 15 20" fill="none" xmlns="http://www.w3.org/2000/svg">
<path d="M7.5 0C3.33333 0 0 3.29412 0 7.41177C0 10.3529 1.19048 13.4118 3.57143 16.3529C5.35714 18.5882 7.02381 19.8824 7.14286 19.8824C7.2619 20 7.38095 20 7.5 20C7.61905 20 7.7381 20 7.85714 19.8824C7.97619 19.8824 9.64286 18.4706 11.4286 16.3529C13.8095 13.4118 15 10.3529 15 7.41177C14.881 3.29412 11.5476 0 7.5 0ZM7.5 18.8235C6.19048 17.6471 1.07143 13.0588 1.07143 7.41177C1.07143 3.88235 3.92857 1.05882 7.5 1.05882C11.0714 1.05882 13.9286 3.88235 13.9286 7.41177C13.8095 13.0588 8.80952 17.6471 7.5 18.8235Z" fill="black"/>
<path d="M7.55998 3.17578C5.27998 3.17578 3.47998 4.94049 3.47998 7.05813C3.47998 9.17578 5.27998 11.0581 7.55998 11.0581C9.83998 11.0581 11.52 9.29343 11.52 7.05813C11.52 4.82284 9.71998 3.17578 7.55998 3.17578ZM7.55998 9.99931C5.87998 9.99931 4.55998 8.70519 4.55998 7.05813C4.55998 5.41108 5.87998 4.11696 7.55998 4.11696C9.23998 4.11696 10.44 5.52872 10.44 7.05813C10.44 8.58755 9.11998 9.99931 7.55998 9.99931Z" fill="black"/>
</svg>
