<svg width="15" height="12" viewBox="0 0 15 12" fill="none" xmlns="http://www.w3.org/2000/svg">
<g clip-path="url(#clip0)">
<path d="M1.61538 0C0.692308 0 0 0.72 0 1.68V10.44C0 11.28 0.692308 12 1.61538 12H13.5C14.3077 12 15.1154 11.28 15.1154 10.32V1.68C15 0.72 14.3077 0 13.5 0H1.61538ZM13.5 10.92H1.61538C1.26923 10.92 1.03846 10.68 1.03846 10.32V1.8L7.26923 7.08C7.38462 7.2 7.73077 7.2 7.84615 7.08L13.9615 1.8V10.32C13.9615 10.68 13.7308 10.92 13.5 10.92ZM7.5 6L1.73077 1.08H13.1538H13.0385L7.5 6Z" fill="black"/>
</g>
<defs>
<clipPath id="clip0">
<rect width="15" height="12" fill="white"/>
</clipPath>
</defs>
</svg>
