<svg width="35" height="35" viewBox="0 0 35 35" fill="none" xmlns="http://www.w3.org/2000/svg">
<path d="M33.871 24.0484V22.0161C33.871 21.7056 33.6169 21.4516 33.3064 21.4516H32.7419V15.2419C32.7419 14.3105 31.9798 13.5484 31.0484 13.5484H29.3548V10.7258C29.3548 9.79435 28.5927 9.03226 27.6613 9.03226H25.9677V0.564516C25.9677 0.254032 25.7137 0 25.4032 0H7.33871C7.02823 0 6.77419 0.254032 6.77419 0.564516V9.03226H5.08065C4.14919 9.03226 3.3871 9.79435 3.3871 10.7258V13.5484H1.69355C0.762097 13.5484 0 14.3105 0 15.2419V24.2742C0 25.0081 0.472782 25.629 1.12903 25.8619V26.5323C1.12903 27.4637 1.89113 28.2258 2.82258 28.2258H6.77419V28.7903C6.77419 29.1008 7.02823 29.3548 7.33871 29.3548H20.3226V34.4355C20.3226 34.746 20.5766 35 20.8871 35H25.4032H29.9194H34.4355C34.746 35 35 34.746 35 34.4355V26.998C35 25.8972 34.5978 24.8599 33.871 24.0484ZM23.7097 23.7097H22.5806V22.5806H23.7097V23.7097ZM22.2631 24.8387H24.0202C24.4435 25.3185 24.7117 25.9042 24.7964 26.5323H21.4798C21.5786 25.9042 21.8468 25.3185 22.2631 24.8387ZM5.64516 20.3226H6.77419V24.8387H5.64516V20.3226ZM5.64516 19.1935V18.0645H27.0968V19.1935H5.64516ZM28.2258 22.5806V23.7097H27.0968V22.5806H28.2258ZM26.7792 24.8387H28.5363C28.9597 25.3185 29.2278 25.9042 29.3125 26.5323H25.996C26.0948 25.9042 26.3629 25.3185 26.7792 24.8387ZM21.4516 27.6613H24.8387V31.6129H21.4516V27.6613ZM25.9677 27.6613H29.3548V31.6129H25.9677V27.6613ZM30.4839 27.6613H33.871V31.6129H30.4839V27.6613ZM33.8357 26.5323H30.5192C30.6109 25.9042 30.872 25.3185 31.2954 24.8387H33.0524C33.4758 25.3185 33.7439 25.9042 33.8357 26.5323ZM32.7419 22.5806V23.7097H31.6129V22.5806H32.7419ZM27.6613 10.1613C27.9718 10.1613 28.2258 10.4153 28.2258 10.7258V13.5484H25.9677V10.1613H27.6613ZM24.8387 1.12903V13.5484H7.90323V1.12903H24.8387ZM4.51613 10.7258C4.51613 10.4153 4.77016 10.1613 5.08065 10.1613H6.77419V13.5484H4.51613V10.7258ZM1.12903 15.2419C1.12903 14.9315 1.38306 14.6774 1.69355 14.6774H31.0484C31.3589 14.6774 31.6129 14.9315 31.6129 15.2419V21.4516H31.0484C30.7379 21.4516 30.4839 21.7056 30.4839 22.0161V24.0484C30.2651 24.2954 30.0746 24.5635 29.9194 24.8458C29.7641 24.5635 29.5736 24.2954 29.3548 24.0484V22.0161C29.3548 21.7056 29.1008 21.4516 28.7903 21.4516H28.2258V17.5C28.2258 17.1895 27.9718 16.9355 27.6613 16.9355H5.08065C4.77016 16.9355 4.51613 17.1895 4.51613 17.5V24.8387H1.69355C1.38306 24.8387 1.12903 24.5847 1.12903 24.2742V15.2419ZM2.82258 27.0968C2.5121 27.0968 2.25806 26.8427 2.25806 26.5323V25.9677H6.77419V27.0968H2.82258ZM7.90323 28.2258V20.3226H27.0968V21.4516H26.5323C26.2218 21.4516 25.9677 21.7056 25.9677 22.0161V24.0484C25.749 24.2954 25.5585 24.5635 25.4032 24.8458C25.248 24.5635 25.0575 24.2954 24.8387 24.0484V22.0161C24.8387 21.7056 24.5847 21.4516 24.2742 21.4516H22.0161C21.7056 21.4516 21.4516 21.7056 21.4516 22.0161V24.0484C20.7248 24.8599 20.3226 25.8972 20.3226 26.998V28.2258H7.90323ZM21.4516 32.7419H24.8387V33.871H21.4516V32.7419ZM25.9677 32.7419H29.3548V33.871H25.9677V32.7419ZM30.4839 33.871V32.7419H33.871V33.871H30.4839Z" fill="black"/>
</svg>
