<svg width="50" height="50" viewBox="0 0 50 50" fill="none" xmlns="http://www.w3.org/2000/svg">
<path d="M5.87085 14.8438H13.2094V22.168H5.87085V14.8438Z" fill="#2D2D2D"/>
<path d="M11.7417 6.05469H26.5166V22.168H11.7417V6.05469Z" fill="#FEF000"/>
<path d="M44.0313 41.2109H0V20.7031H44.0313V41.2109Z" fill="#03A7E4"/>
<path d="M23.4834 26.5625H26.4188V29.4922H23.4834V26.5625Z" fill="#F3F3F3"/>
<path d="M17.6125 26.5625H20.548V29.4922H17.6125V26.5625Z" fill="#F3F3F3"/>
<path d="M5.87085 26.5625H14.6771V29.4922H5.87085V26.5625Z" fill="#F3F3F3"/>
<path d="M32.2896 32.4219L22.0157 35.5469L11.7417 32.4219H5.87085V50H38.1605V32.4219H32.2896Z" fill="#2D2D2D"/>
<path d="M11.7417 32.4219H32.2896V44.1406H11.7417V32.4219Z" fill="#FEF000"/>
<path d="M36.8885 0.0091625C29.9903 -0.195916 23.5813 5.6244 23.5813 13.1928C23.5813 20.7318 29.9707 26.5814 36.8885 26.3764C44.1292 26.3275 50.0001 20.4291 50.0001 13.1928C50.0001 5.95643 44.1195 0.0579906 36.8885 0.0091625Z" fill="#E70186"/>
<path d="M38.6008 8.80859C37.9844 7.77344 38.3464 8.37891 36.8885 5.82031C35.4403 8.36914 35.7926 7.77344 35.1762 8.80859C33.3855 11.8066 32.4854 13.5352 32.4854 14.6484C32.4854 17.0703 34.4619 19.043 36.8885 19.043C39.3151 19.043 41.2916 17.0703 41.2916 14.6484C41.2916 13.5352 40.3816 11.8066 38.6008 8.80859Z" fill="#F3F3F3"/>
</svg>
