<svg width="70" height="70" viewBox="0 0 70 70" fill="none" xmlns="http://www.w3.org/2000/svg">
<path d="M8.21924 20.7812H18.4932V31.0352H8.21924V20.7812Z" fill="#2D2D2D"/>
<path d="M16.4382 8.47656H37.1232V31.0352H16.4382V8.47656Z" fill="#FEF000"/>
<path d="M61.6438 57.6953H0V28.9844H61.6438V57.6953Z" fill="#03A7E4"/>
<path d="M32.8767 37.1875H36.9863V41.2891H32.8767V37.1875Z" fill="#F3F3F3"/>
<path d="M24.6575 37.1875H28.7671V41.2891H24.6575V37.1875Z" fill="#F3F3F3"/>
<path d="M8.21924 37.1875H20.548V41.2891H8.21924V37.1875Z" fill="#F3F3F3"/>
<path d="M45.2055 45.3906L30.822 49.7656L16.4384 45.3906H8.21924V70H53.4247V45.3906H45.2055Z" fill="#2D2D2D"/>
<path d="M16.4382 45.3906H45.2054V61.7969H16.4382V45.3906Z" fill="#FEF000"/>
<path d="M51.6438 0.0132181C41.9863 -0.273891 33.0137 7.87455 33.0137 18.4702C33.0137 29.0249 41.9589 37.2144 51.6438 36.9273C61.7808 36.8589 70 28.6011 70 18.4702C70 8.33939 61.7671 0.0815775 51.6438 0.0132181Z" fill="#E70186"/>
<path d="M54.0411 12.332C53.1781 10.8828 53.685 11.7305 51.6439 8.14844C49.6165 11.7168 50.1096 10.8828 49.2466 12.332C46.7398 16.5293 45.4795 18.9492 45.4795 20.5078C45.4795 23.8984 48.2466 26.6602 51.6439 26.6602C55.0411 26.6602 57.8082 23.8984 57.8082 20.5078C57.8082 18.9492 56.5343 16.5293 54.0411 12.332Z" fill="#F3F3F3"/>
</svg>
