<svg width="30" height="30" viewBox="0 0 30 30" fill="none" xmlns="http://www.w3.org/2000/svg">
<g clip-path="url(#clip0)">
<path d="M3.52252 8.90625H7.92565V13.3008H3.52252V8.90625Z" fill="#2D2D2D"/>
<path d="M7.04501 3.63281H15.91V13.3008H7.04501V3.63281Z" fill="#FEF000"/>
<path d="M26.4188 24.7266H0V12.4219H26.4188V24.7266Z" fill="#03A7E4"/>
<path d="M14.09 15.9375H15.8512V17.6953H14.09V15.9375Z" fill="#F3F3F3"/>
<path d="M10.5675 15.9375H12.3288V17.6953H10.5675V15.9375Z" fill="#F3F3F3"/>
<path d="M3.52252 15.9375H8.80628V17.6953H3.52252V15.9375Z" fill="#F3F3F3"/>
<path d="M19.3738 19.4531L13.2094 21.3281L7.04503 19.4531H3.52252V30H22.8963V19.4531H19.3738Z" fill="#2D2D2D"/>
<path d="M7.04501 19.4531H19.3738V26.4844H7.04501V19.4531Z" fill="#FEF000"/>
<path d="M22.1331 0.00510687C17.9941 -0.11794 14.1487 3.37425 14.1487 7.91526C14.1487 12.4387 17.9824 15.9485 22.1331 15.8254C26.4775 15.7961 30 12.2571 30 7.91526C30 3.57347 26.4716 0.0344037 22.1331 0.00510687Z" fill="#E70186"/>
<path d="M23.1605 5.28516C22.7906 4.66406 23.0078 5.02734 22.1331 3.49219C21.2642 5.02148 21.4756 4.66406 21.1057 5.28516C20.0313 7.08398 19.4912 8.12109 19.4912 8.78906C19.4912 10.2422 20.6771 11.4258 22.1331 11.4258C23.5891 11.4258 24.775 10.2422 24.775 8.78906C24.775 8.12109 24.229 7.08398 23.1605 5.28516Z" fill="#F3F3F3"/>
</g>
<defs>
<clipPath id="clip0">
<rect width="30" height="30" fill="white"/>
</clipPath>
</defs>
</svg>
