<?xml version="1.0" encoding="utf-8"?>
<!-- Generator: Adobe Illustrator 23.0.1, SVG Export Plug-In . SVG Version: 6.00 Build 0)  -->
<svg version="1.1" id="Layer_1" xmlns="http://www.w3.org/2000/svg" xmlns:xlink="http://www.w3.org/1999/xlink" x="0px" y="0px"
	 width="100px" height="100px" viewBox="0 0 100 100" style="enable-background:new 0 0 100 100;" xml:space="preserve">
<style type="text/css">
	.st0{fill:#E9DBE0;}
	.st1{fill:#9A1E44;}
</style>
<path class="st0" d="M45,39.1c-3.8,0-7,2.9-7.4,6.7c-0.7,6.5,5.3,10.5,10.5,14.1l1,0.7c0.3,0.2,0.6,0.3,1,0.3s0.6-0.1,1-0.3l1-0.7
	c5.2-3.5,11.2-7.6,10.5-14.1c-0.3-3.6-3.7-6.6-7.6-6.6c-1.9,0-3.5,0.7-4.9,2C48.7,39.9,46.9,39.1,45,39.1L45,39.1z"/>
<path class="st1" d="M45,40.8c1.9,0,3.8,1,5.1,3.2c1.2-2.2,3.1-3.1,4.9-3.1c2.8,0,5.6,2.2,5.9,5.1c0.6,6-5.4,9.6-10.8,13.2
	c-5.4-3.7-11.4-7.3-10.8-13.2C39.6,42.8,42.3,40.8,45,40.8 M45,39.1c-3.8,0-7,2.9-7.4,6.7c-0.7,6.5,5.3,10.5,10.5,14.1l1,0.7
	c0.3,0.2,0.6,0.3,1,0.3s0.6-0.1,1-0.3l1-0.7c5.2-3.5,11.2-7.6,10.5-14.1c-0.3-3.6-3.7-6.6-7.6-6.6c-1.9,0-3.5,0.7-4.9,2
	C48.7,39.9,46.9,39.1,45,39.1L45,39.1z"/>
</svg>
