<svg xmlns="http://www.w3.org/2000/svg" width="15.5" height="15.5" viewBox="0 0 15.5 15.5">
  <metadata><?xpacket begin="﻿" id="W5M0MpCehiHzreSzNTczkc9d"?>
<x:xmpmeta xmlns:x="adobe:ns:meta/" x:xmptk="Adobe XMP Core 5.6-c142 79.160924, 2017/07/13-01:06:39        ">
   <rdf:RDF xmlns:rdf="http://www.w3.org/1999/02/22-rdf-syntax-ns#">
      <rdf:Description rdf:about=""/>
   </rdf:RDF>
</x:xmpmeta>
                                                                                                    
                                                                                                    
                                                                                                    
                                                                                                    
                                                                                                    
                                                                                                    
                                                                                                    
                                                                                                    
                                                                                                    
                                                                                                    
                                                                                                    
                                                                                                    
                                                                                                    
                                                                                                    
                                                                                                    
                                                                                                    
                                                                                                    
                                                                                                    
                                                                                                    
                                                                                                    
                           
<?xpacket end="w"?></metadata>
<defs>
    <style>
      .cls-1 {
        fill: #fff;
        fill-rule: evenodd;
      }
    </style>
  </defs>
  <path id="link" class="cls-1" d="M494.976,3959.26l-1.319-1.27a2.685,2.685,0,0,0-3.651-.05l-0.349.34-1.559,1.53a0.475,0.475,0,0,0,0,.69,0.529,0.529,0,0,0,.717,0l1.559-1.53,0.348-.33a1.653,1.653,0,0,1,2.218.04l1.319,1.28a1.514,1.514,0,0,1,.047,2.14l-3.135,3.25-1.348,1.09a1.866,1.866,0,0,1-2.373.1l-0.6-.58c-0.019-.02-0.031-0.04-0.048-0.06l-0.008.01-0.358-.35a0.522,0.522,0,0,0-.717,0,0.475,0.475,0,0,0,0,.69l0.415,0.4,0.6,0.59,0.057,0.05a0.386,0.386,0,0,0,.1.06,2.883,2.883,0,0,0,3.47-.07l0.018,0.01a0.982,0.982,0,0,0,.1-0.11c0.02-.02.046-0.03,0.067-0.05l4.483-4.33A2.482,2.482,0,0,0,494.976,3959.26Zm-7.895,10.24-0.966.95-0.842.84a1.5,1.5,0,0,1-2.144,0l-1.429-1.43a1.524,1.524,0,0,1,0-2.15l4.645-4.66a1.519,1.519,0,0,1,2.143,0l0.715,0.72,0.357,0.36a0.5,0.5,0,0,0,.715,0,0.512,0.512,0,0,0,0-.72l-0.358-.36-0.714-.71a2.52,2.52,0,0,0-3.573,0l-4.645,4.65a2.55,2.55,0,0,0,0,3.59l1.429,1.43a2.522,2.522,0,0,0,3.574,0l0.357-.36,1.45-1.44A0.5,0.5,0,0,0,487.081,3969.5Z" transform="translate(-480.25 -3957.25)"/>
</svg>
